<mxfile host="65bd71144e">
    <diagram id="tkWW3y8qo-MTr_yRD3-b" name="PÃ¡gina-1">
        <mxGraphModel dx="1068" dy="593" grid="1" gridSize="10" guides="1" tooltips="1" connect="1" arrows="1" fold="1" page="1" pageScale="1" pageWidth="1200" pageHeight="1600" math="0" shadow="0">
            <root>
                <mxCell id="0"/>
                <mxCell id="1" parent="0"/>
            </root>
        </mxGraphModel>
    </diagram>
</mxfile>